<?xml version="1.0" standalone="no"?>
<!DOCTYPE svg PUBLIC "-//W3C//DTD SVG 20010904//EN"
 "http://www.w3.org/TR/2001/REC-SVG-20010904/DTD/svg10.dtd">
<svg version="1.0" xmlns="http://www.w3.org/2000/svg"
 width="256.000000pt" height="256.000000pt" viewBox="0 0 256.000000 256.000000"
 preserveAspectRatio="xMidYMid meet">
<metadata>
Created by potrace 1.14, written by Peter Selinger 2001-2017
</metadata>
<g transform="translate(0.000000,256.000000) scale(0.100000,-0.100000)"
fill="#000000" stroke="none">
<path d="M1178 2224 c-2 -1 -32 -5 -68 -9 -59 -5 -160 -23 -232 -39 -15 -4
-60 -17 -100 -29 l-73 -23 3 -36 c2 -32 -1 -36 -25 -43 -53 -13 -197 -86 -252
-127 -121 -91 -222 -217 -295 -364 -34 -70 -74 -179 -83 -223 -2 -14 -6 -28
-9 -32 -10 -17 -19 -132 -18 -244 0 -97 5 -133 24 -190 54 -166 135 -279 267
-374 45 -33 185 -101 207 -101 8 0 17 -4 20 -9 3 -5 16 -11 28 -14 13 -2 50
-12 83 -21 33 -9 71 -19 85 -21 14 -3 34 -7 45 -9 136 -26 297 -39 500 -39
133 -1 311 8 365 17 14 3 41 7 60 10 60 9 174 34 203 45 15 6 27 9 27 7 0 -11
188 69 255 107 129 75 233 195 289 333 25 62 29 75 47 174 22 125 -1 333 -53
475 -26 72 -90 198 -124 242 -13 17 -24 34 -24 37 0 3 -11 17 -24 31 -14 15
-37 40 -53 57 -87 94 -214 178 -334 219 l-67 23 5 37 c5 32 2 37 -18 41 -13 3
-62 17 -109 31 -93 27 -117 32 -260 52 -80 11 -284 18 -292 9z"/>
</g>
</svg>
